<svg width="325" height="123" viewBox="0 0 325 123" fill="none" xmlns="http://www.w3.org/2000/svg">
<path d="M310.205 110.9C306.885 110.9 304.005 110.28 301.565 109.04C299.165 107.8 297.305 106.02 295.985 103.7C294.665 101.38 294.005 98.58 294.005 95.3C294.005 92.02 294.665 89.22 295.985 86.9C297.305 84.58 299.145 82.8 301.505 81.56C303.905 80.32 306.645 79.7 309.725 79.7C312.885 79.7 315.565 80.32 317.765 81.56C320.005 82.76 321.705 84.44 322.865 86.6C324.025 88.72 324.605 91.16 324.605 93.92C324.605 94.64 324.585 95.36 324.545 96.08C324.505 96.8 324.445 97.4 324.365 97.88H300.605V92.42H319.865L315.005 94.28C315.005 91.88 314.565 90.04 313.685 88.76C312.845 87.48 311.525 86.84 309.725 86.84C308.445 86.84 307.345 87.14 306.425 87.74C305.545 88.34 304.865 89.28 304.385 90.56C303.945 91.84 303.725 93.48 303.725 95.48C303.725 97.44 303.985 99.04 304.505 100.28C305.025 101.48 305.765 102.36 306.725 102.92C307.685 103.44 308.845 103.7 310.205 103.7C311.725 103.7 312.925 103.4 313.805 102.8C314.725 102.2 315.405 101.36 315.845 100.28L324.005 102.98C323.445 104.7 322.465 106.16 321.065 107.36C319.705 108.52 318.065 109.4 316.145 110C314.265 110.6 312.285 110.9 310.205 110.9Z" fill="#2947A9"/>
<path d="M275.742 79.7C278.782 79.7 281.302 80.14 283.302 81.02C285.342 81.86 286.922 83 288.042 84.44C289.202 85.84 289.922 87.36 290.202 89L280.782 92.12C280.502 90.4 279.982 89.12 279.222 88.28C278.502 87.4 277.442 86.96 276.042 86.96C274.762 86.96 273.682 87.26 272.802 87.86C271.962 88.42 271.322 89.34 270.882 90.62C270.442 91.86 270.222 93.46 270.222 95.42C270.222 97.38 270.462 98.98 270.942 100.22C271.422 101.42 272.102 102.3 272.982 102.86C273.862 103.38 274.902 103.64 276.102 103.64C277.102 103.64 277.922 103.46 278.562 103.1C279.242 102.7 279.802 102.14 280.242 101.42C280.682 100.7 280.962 99.82 281.082 98.78L290.262 101.72C289.982 103.48 289.222 105.06 287.982 106.46C286.782 107.82 285.182 108.9 283.182 109.7C281.182 110.5 278.842 110.9 276.162 110.9C272.882 110.9 270.022 110.3 267.582 109.1C265.142 107.86 263.262 106.08 261.942 103.76C260.622 101.4 259.962 98.58 259.962 95.3C259.962 92.02 260.622 89.22 261.942 86.9C263.262 84.54 265.102 82.76 267.462 81.56C269.862 80.32 272.622 79.7 275.742 79.7Z" fill="#2947A9"/>
<path d="M224.315 110.3V80.3H233.435L233.975 90.62L232.835 89.48C233.235 87.32 233.935 85.52 234.935 84.08C235.975 82.64 237.255 81.56 238.775 80.84C240.335 80.08 242.075 79.7 243.995 79.7C246.075 79.7 247.875 80.1 249.395 80.9C250.955 81.7 252.175 82.88 253.055 84.44C253.935 86 254.375 87.96 254.375 90.32V110.3H244.175V93.02C244.175 90.94 243.775 89.5 242.975 88.7C242.175 87.9 241.155 87.5 239.915 87.5C238.955 87.5 238.055 87.74 237.215 88.22C236.375 88.66 235.715 89.38 235.235 90.38C234.755 91.38 234.515 92.72 234.515 94.4V110.3H224.315Z" fill="#2947A9"/>
<path d="M204.209 110.9C200.889 110.9 198.009 110.28 195.569 109.04C193.169 107.8 191.309 106.02 189.989 103.7C188.669 101.38 188.009 98.58 188.009 95.3C188.009 92.02 188.669 89.22 189.989 86.9C191.309 84.58 193.149 82.8 195.509 81.56C197.909 80.32 200.649 79.7 203.729 79.7C206.889 79.7 209.569 80.32 211.769 81.56C214.009 82.76 215.709 84.44 216.869 86.6C218.029 88.72 218.609 91.16 218.609 93.92C218.609 94.64 218.589 95.36 218.549 96.08C218.509 96.8 218.449 97.4 218.369 97.88H194.609V92.42H213.869L209.009 94.28C209.009 91.88 208.569 90.04 207.689 88.76C206.849 87.48 205.529 86.84 203.729 86.84C202.449 86.84 201.349 87.14 200.429 87.74C199.549 88.34 198.869 89.28 198.389 90.56C197.949 91.84 197.729 93.48 197.729 95.48C197.729 97.44 197.989 99.04 198.509 100.28C199.029 101.48 199.769 102.36 200.729 102.92C201.689 103.44 202.849 103.7 204.209 103.7C205.729 103.7 206.929 103.4 207.809 102.8C208.729 102.2 209.409 101.36 209.849 100.28L218.009 102.98C217.449 104.7 216.469 106.16 215.069 107.36C213.709 108.52 212.069 109.4 210.149 110C208.269 110.6 206.289 110.9 204.209 110.9Z" fill="#2947A9"/>
<path d="M177.208 76.82C175.128 76.82 173.608 76.44 172.648 75.68C171.728 74.88 171.268 73.64 171.268 71.96C171.268 70.24 171.728 69 172.648 68.24C173.608 67.44 175.128 67.04 177.208 67.04C179.248 67.04 180.748 67.44 181.708 68.24C182.668 69 183.148 70.24 183.148 71.96C183.148 73.64 182.668 74.88 181.708 75.68C180.748 76.44 179.248 76.82 177.208 76.82ZM182.308 80.3V110.3H172.108V80.3H182.308Z" fill="#2947A9"/>
<path d="M146.327 110.3V80.3H155.327L155.747 86.78C156.507 84.54 157.627 82.8 159.107 81.56C160.627 80.32 162.547 79.7 164.867 79.7C165.627 79.7 166.267 79.76 166.787 79.88C167.347 80 167.787 80.16 168.107 80.36L167.087 88.76C166.687 88.6 166.167 88.48 165.527 88.4C164.927 88.28 164.187 88.22 163.307 88.22C162.107 88.22 160.987 88.48 159.947 89C158.907 89.52 158.067 90.3 157.427 91.34C156.827 92.34 156.527 93.62 156.527 95.18V110.3H146.327Z" fill="#2947A9"/>
<path d="M126.221 110.9C122.901 110.9 120.021 110.28 117.581 109.04C115.181 107.8 113.321 106.02 112.001 103.7C110.681 101.38 110.021 98.58 110.021 95.3C110.021 92.02 110.681 89.22 112.001 86.9C113.321 84.58 115.161 82.8 117.521 81.56C119.921 80.32 122.661 79.7 125.741 79.7C128.901 79.7 131.581 80.32 133.781 81.56C136.021 82.76 137.721 84.44 138.881 86.6C140.041 88.72 140.621 91.16 140.621 93.92C140.621 94.64 140.601 95.36 140.561 96.08C140.521 96.8 140.461 97.4 140.381 97.88H116.621V92.42H135.881L131.021 94.28C131.021 91.88 130.581 90.04 129.701 88.76C128.861 87.48 127.541 86.84 125.741 86.84C124.461 86.84 123.361 87.14 122.441 87.74C121.561 88.34 120.881 89.28 120.401 90.56C119.961 91.84 119.741 93.48 119.741 95.48C119.741 97.44 120.001 99.04 120.521 100.28C121.041 101.48 121.781 102.36 122.741 102.92C123.701 103.44 124.861 103.7 126.221 103.7C127.741 103.7 128.941 103.4 129.821 102.8C130.741 102.2 131.421 101.36 131.861 100.28L140.021 102.98C139.461 104.7 138.481 106.16 137.081 107.36C135.721 108.52 134.081 109.4 132.161 110C130.281 110.6 128.301 110.9 126.221 110.9Z" fill="#2947A9"/>
<path d="M73.9636 122.9V80.3H83.1436L83.6836 91.16L82.4836 89.9C82.7636 87.9 83.3836 86.14 84.3436 84.62C85.3036 83.1 86.5436 81.9 88.0636 81.02C89.5836 80.14 91.3236 79.7 93.2836 79.7C95.7636 79.7 97.9236 80.32 99.7636 81.56C101.604 82.76 103.024 84.52 104.024 86.84C105.064 89.12 105.584 91.9 105.584 95.18C105.584 98.46 105.064 101.28 104.024 103.64C102.984 106 101.524 107.8 99.6436 109.04C97.8036 110.28 95.6436 110.9 93.1636 110.9C90.4436 110.9 88.2436 110.1 86.5636 108.5C84.8836 106.86 83.7636 104.8 83.2036 102.32L84.1636 100.88V122.9H73.9636ZM89.6836 103.4C91.4436 103.4 92.8236 102.76 93.8236 101.48C94.8236 100.16 95.3236 98.1 95.3236 95.3C95.3236 92.5 94.8236 90.46 93.8236 89.18C92.8636 87.86 91.5036 87.2 89.7436 87.2C88.6236 87.2 87.6436 87.52 86.8036 88.16C85.9636 88.76 85.3036 89.66 84.8236 90.86C84.3836 92.06 84.1636 93.54 84.1636 95.3C84.1636 96.98 84.3636 98.44 84.7636 99.68C85.2036 100.88 85.8436 101.8 86.6836 102.44C87.5236 103.08 88.5236 103.4 89.6836 103.4Z" fill="#2947A9"/>
<path d="M47.4516 80.3L54.7716 93.8L58.1316 93.5L69.9516 110.3H58.2516L50.6916 96.62H47.1516L35.6916 80.3H47.4516ZM69.7116 80.3L58.3716 96.5L54.5916 96.26L46.7316 110.3H35.2716L47.3316 93.38L50.8116 93.86L58.2516 80.3H69.7116Z" fill="#2947A9"/>
<path d="M1.5 110.3V70.7H32.34V78.68H11.82V86.72H28.14V94.22H11.82V102.32H33.12V110.3H1.5Z" fill="#2947A9"/>
<path d="M193.497 40.9C190.497 40.9 187.697 40.42 185.097 39.46C182.537 38.46 180.417 37.04 178.737 35.2L183.537 29.56C184.537 30.84 185.857 31.92 187.497 32.8C189.177 33.64 191.037 34.06 193.077 34.06C194.317 34.06 195.337 33.88 196.137 33.52C196.937 33.16 197.337 32.6 197.337 31.84C197.337 31.28 197.137 30.84 196.737 30.52C196.337 30.16 195.537 29.86 194.337 29.62L190.137 28.78C186.377 28.02 183.697 26.9 182.097 25.42C180.537 23.9 179.757 21.92 179.757 19.48C179.757 17.84 180.257 16.28 181.257 14.8C182.257 13.28 183.797 12.06 185.877 11.14C187.957 10.18 190.617 9.70001 193.857 9.70001C196.897 9.70001 199.577 10.14 201.897 11.02C204.217 11.9 206.057 13.18 207.417 14.86L202.557 20.38C201.597 19.18 200.357 18.24 198.837 17.56C197.317 16.88 195.797 16.54 194.277 16.54C193.317 16.54 192.497 16.64 191.817 16.84C191.177 17 190.697 17.24 190.377 17.56C190.057 17.88 189.897 18.28 189.897 18.76C189.897 19.28 190.137 19.74 190.617 20.14C191.137 20.5 192.077 20.82 193.437 21.1L198.897 22.18C201.977 22.74 204.197 23.76 205.557 25.24C206.917 26.72 207.597 28.5 207.597 30.58C207.597 32.54 207.077 34.3 206.037 35.86C204.997 37.42 203.437 38.66 201.357 39.58C199.277 40.46 196.657 40.9 193.497 40.9Z" fill="#2947A9"/>
<path d="M155.643 40.3V10.3H164.643L165.063 16.78C165.823 14.54 166.943 12.8 168.423 11.56C169.943 10.32 171.863 9.70001 174.183 9.70001C174.943 9.70001 175.583 9.76001 176.103 9.88001C176.663 10 177.103 10.16 177.423 10.36L176.403 18.76C176.003 18.6 175.483 18.48 174.843 18.4C174.243 18.28 173.503 18.22 172.623 18.22C171.423 18.22 170.303 18.48 169.263 19C168.223 19.52 167.383 20.3 166.743 21.34C166.143 22.34 165.843 23.62 165.843 25.18V40.3H155.643Z" fill="#2947A9"/>
<path d="M137.637 21.28C137.637 19.88 137.237 18.78 136.437 17.98C135.677 17.14 134.637 16.72 133.317 16.72C131.997 16.72 130.857 17.06 129.897 17.74C128.977 18.38 128.337 19.54 127.977 21.22L119.337 19.18C119.897 16.3 121.377 14 123.777 12.28C126.177 10.56 129.557 9.70001 133.917 9.70001C136.837 9.70001 139.317 10.14 141.357 11.02C143.437 11.86 145.017 13.14 146.097 14.86C147.217 16.54 147.777 18.62 147.777 21.1V32.08C147.777 33.64 148.477 34.42 149.877 34.42C150.597 34.42 151.177 34.34 151.617 34.18L151.017 40C149.817 40.56 148.357 40.84 146.637 40.84C145.077 40.84 143.697 40.6 142.497 40.12C141.297 39.6 140.357 38.84 139.677 37.84C138.997 36.8 138.657 35.5 138.657 33.94V33.58L139.797 33.16C139.797 34.88 139.277 36.32 138.237 37.48C137.237 38.64 135.917 39.5 134.277 40.06C132.677 40.62 130.997 40.9 129.237 40.9C127.197 40.9 125.417 40.58 123.897 39.94C122.377 39.3 121.197 38.38 120.357 37.18C119.557 35.94 119.157 34.42 119.157 32.62C119.157 30.46 119.797 28.68 121.077 27.28C122.397 25.84 124.457 24.84 127.257 24.28L138.597 21.94L138.537 27.34L132.777 28.54C131.577 28.78 130.677 29.14 130.077 29.62C129.517 30.06 129.237 30.74 129.237 31.66C129.237 32.54 129.557 33.2 130.197 33.64C130.837 34.08 131.597 34.3 132.477 34.3C133.157 34.3 133.797 34.2 134.397 34C135.037 33.8 135.597 33.5 136.077 33.1C136.557 32.66 136.937 32.12 137.217 31.48C137.497 30.84 137.637 30.08 137.637 29.2V21.28Z" fill="#2947A9"/>
<path d="M100.791 40.9C97.4711 40.9 94.5911 40.28 92.1511 39.04C89.7511 37.8 87.8911 36.02 86.5711 33.7C85.2511 31.38 84.5911 28.58 84.5911 25.3C84.5911 22.02 85.2511 19.22 86.5711 16.9C87.8911 14.58 89.7311 12.8 92.0911 11.56C94.4911 10.32 97.2311 9.70001 100.311 9.70001C103.471 9.70001 106.151 10.32 108.351 11.56C110.591 12.76 112.291 14.44 113.451 16.6C114.611 18.72 115.191 21.16 115.191 23.92C115.191 24.64 115.171 25.36 115.131 26.08C115.091 26.8 115.031 27.4 114.951 27.88H91.1911V22.42H110.451L105.591 24.28C105.591 21.88 105.151 20.04 104.271 18.76C103.431 17.48 102.111 16.84 100.311 16.84C99.0311 16.84 97.9311 17.14 97.0111 17.74C96.1311 18.34 95.4511 19.28 94.9711 20.56C94.5311 21.84 94.3111 23.48 94.3111 25.48C94.3111 27.44 94.5711 29.04 95.0911 30.28C95.6111 31.48 96.3511 32.36 97.3111 32.92C98.2711 33.44 99.4311 33.7 100.791 33.7C102.311 33.7 103.511 33.4 104.391 32.8C105.311 32.2 105.991 31.36 106.431 30.28L114.591 32.98C114.031 34.7 113.051 36.16 111.651 37.36C110.291 38.52 108.651 39.4 106.731 40C104.851 40.6 102.871 40.9 100.791 40.9Z" fill="#2947A9"/>
<path d="M88.3814 0.700012L74.4014 25.84V40.3H64.0814V25.84L50.1014 0.700012H60.7814L66.3614 11.56L69.3014 18.16L72.3014 11.56L77.8814 0.700012H88.3814Z" fill="#2947A9"/>
<path d="M17.64 0.100006C19.76 0.100006 21.72 0.380006 23.52 0.940006C25.36 1.50001 26.96 2.42001 28.32 3.70001C29.68 4.98001 30.7 6.70001 31.38 8.86L22.98 12.82C22.58 11.42 21.88 10.32 20.88 9.52001C19.92 8.68001 18.62 8.26 16.98 8.26C15.86 8.26 14.82 8.54 13.86 9.1C12.94 9.62 12.14 10.38 11.46 11.38C10.78 12.38 10.26 13.6 9.9 15.04C9.58 16.48 9.42 18.1 9.42 19.9C9.42 20.02 9.42 20.16 9.42 20.32C9.42 20.44 9.42 20.62 9.42 20.86L9.54 21.22C10.02 20.02 10.76 19.02 11.76 18.22C12.8 17.38 13.98 16.74 15.3 16.3C16.62 15.86 17.94 15.64 19.26 15.64C21.7 15.64 23.88 16.12 25.8 17.08C27.72 18.04 29.22 19.42 30.3 21.22C31.42 22.98 31.98 25.12 31.98 27.64C31.98 30.36 31.36 32.72 30.12 34.72C28.88 36.68 27.16 38.2 24.96 39.28C22.76 40.36 20.14 40.9 17.1 40.9C13.7 40.9 10.7 40.16 8.1 38.68C5.54 37.16 3.54 34.92 2.1 31.96C0.7 28.96 0 25.26 0 20.86C0 16.14 0.78 12.26 2.34 9.22001C3.9 6.18001 6 3.9 8.64 2.38C11.32 0.860005 14.32 0.100006 17.64 0.100006ZM16.92 22.6C15.88 22.6 14.92 22.82 14.04 23.26C13.2 23.66 12.52 24.26 12 25.06C11.52 25.86 11.28 26.8 11.28 27.88C11.28 28.92 11.54 29.84 12.06 30.64C12.58 31.44 13.26 32.06 14.1 32.5C14.94 32.94 15.88 33.16 16.92 33.16C18.72 33.16 20.1 32.7 21.06 31.78C22.06 30.86 22.56 29.56 22.56 27.88C22.56 26.76 22.34 25.82 21.9 25.06C21.46 24.26 20.82 23.66 19.98 23.26C19.18 22.82 18.16 22.6 16.92 22.6Z" fill="#2947A9"/>
</svg>
