<svg width="40" height="40" viewBox="0 0 40 40" fill="none" xmlns="http://www.w3.org/2000/svg">
<path d="M7.71 14.7966C8.37603 13.2133 9.34405 11.7748 10.56 10.5616C11.7733 9.3449 13.2124 8.37679 14.7967 7.71159C18.0625 6.35481 21.7297 6.33028 25.0133 7.64325C25.0463 8.72238 25.4985 9.74618 26.2739 10.4974C27.0494 11.2485 28.087 11.668 29.1667 11.6666C31.4767 11.6666 33.3333 9.80992 33.3333 7.49992C33.3333 5.18992 31.4767 3.33325 29.1667 3.33325C28.0183 3.33325 26.98 3.79325 26.2283 4.54159C22.1767 2.91992 17.5233 2.94492 13.5033 4.63992C11.52 5.47325 9.73667 6.67325 8.20333 8.20492C6.65512 9.75359 5.42795 11.5927 4.59223 13.6168C3.75651 15.6409 3.3287 17.8101 3.33334 19.9999H6.66667C6.66667 18.1899 7.01833 16.4399 7.71 14.7966ZM32.2883 25.2033C31.62 26.7899 30.66 28.2166 29.4383 29.4383C28.2167 30.6599 26.79 31.6199 25.2017 32.2883C21.9358 33.645 18.2687 33.6696 14.985 32.3566C14.9529 31.2775 14.5012 30.2534 13.7259 29.5021C12.9506 28.7508 11.9129 28.3315 10.8333 28.3333C8.52333 28.3333 6.66667 30.1899 6.66667 32.4999C6.66667 34.8099 8.52333 36.6666 10.8333 36.6666C11.9817 36.6666 13.02 36.2066 13.7717 35.4583C15.7509 36.2572 17.8656 36.6674 20 36.6666C23.2776 36.6729 26.484 35.7111 29.2169 33.9018C31.9498 32.0925 34.0875 29.5163 35.3617 26.4966C36.2275 24.4403 36.6713 22.231 36.6667 19.9999H33.3333C33.3375 21.7869 32.9821 23.5565 32.2883 25.2033Z" fill="#3559C7"/>
<path d="M20 12.4368C15.83 12.4368 12.4367 15.8301 12.4367 20.0001C12.4367 24.1701 15.83 27.5634 20 27.5634C24.17 27.5634 27.5633 24.1701 27.5633 20.0001C27.5633 15.8301 24.17 12.4368 20 12.4368Z" fill="#3559C7"/>
</svg>
