<svg width="40" height="40" viewBox="0 0 40 40" fill="none" xmlns="http://www.w3.org/2000/svg">
<g clip-path="url(#clip0_3_57)">
<path d="M34.4444 8.88892H24.4444V36.6667H36.6667V11.1111C36.6667 10.5218 36.4325 9.95654 36.0158 9.53979C35.599 9.12304 35.0338 8.88892 34.4444 8.88892ZM28.8889 27.7778H26.6667V25.5556H28.8889V27.7778ZM28.8889 22.2222H26.6667V20H28.8889V22.2222ZM28.8889 16.6667H26.6667V14.4445H28.8889V16.6667ZM33.3333 27.7778H31.1111V25.5556H33.3333V27.7778ZM33.3333 22.2222H31.1111V20H33.3333V22.2222ZM33.3333 16.6667H31.1111V14.4445H33.3333V16.6667Z" fill="#3559C7"/>
<path d="M19.8667 3.33325H6.8C6.17527 3.33325 5.57612 3.58143 5.13437 4.02318C4.69262 4.46493 4.44444 5.06407 4.44444 5.68881V36.6666H10V33.3332H16.6667V36.6666H22.2222V5.68881C22.2222 5.06407 21.974 4.46493 21.5323 4.02318C21.0905 3.58143 20.4914 3.33325 19.8667 3.33325ZM10 27.7777H7.77778V25.5555H10V27.7777ZM10 22.2221H7.77778V19.9999H10V22.2221ZM10 16.6666H7.77778V14.4444H10V16.6666ZM10 11.111H7.77778V8.88881H10V11.111ZM14.4444 27.7777H12.2222V25.5555H14.4444V27.7777ZM14.4444 22.2221H12.2222V19.9999H14.4444V22.2221ZM14.4444 16.6666H12.2222V14.4444H14.4444V16.6666ZM14.4444 11.111H12.2222V8.88881H14.4444V11.111ZM18.8889 27.7777H16.6667V25.5555H18.8889V27.7777ZM18.8889 22.2221H16.6667V19.9999H18.8889V22.2221ZM18.8889 16.6666H16.6667V14.4444H18.8889V16.6666ZM18.8889 11.111H16.6667V8.88881H18.8889V11.111Z" fill="#3559C7"/>
</g>
<defs>
<clipPath id="clip0_3_57">
<rect width="40" height="40" fill="white"/>
</clipPath>
</defs>
</svg>
