<svg width="40" height="41" viewBox="0 0 40 41" fill="none" xmlns="http://www.w3.org/2000/svg">
<path d="M28 15.5C28 15.894 27.9224 16.2841 27.7716 16.6481C27.6209 17.012 27.3999 17.3427 27.1213 17.6213C26.8427 17.8999 26.512 18.1209 26.1481 18.2716C25.7841 18.4224 25.394 18.5 25 18.5C24.606 18.5 24.2159 18.4224 23.8519 18.2716C23.488 18.1209 23.1573 17.8999 22.8787 17.6213C22.6001 17.3427 22.3791 17.012 22.2284 16.6481C22.0776 16.2841 22 15.894 22 15.5C22 14.7044 22.3161 13.9413 22.8787 13.3787C23.4413 12.8161 24.2044 12.5 25 12.5C25.7956 12.5 26.5587 12.8161 27.1213 13.3787C27.6839 13.9413 28 14.7044 28 15.5ZM26 15.5C26 15.2348 25.8946 14.9804 25.7071 14.7929C25.5196 14.6054 25.2652 14.5 25 14.5C24.7348 14.5 24.4804 14.6054 24.2929 14.7929C24.1054 14.9804 24 15.2348 24 15.5C24 15.7652 24.1054 16.0196 24.2929 16.2071C24.4804 16.3946 24.7348 16.5 25 16.5C25.2652 16.5 25.5196 16.3946 25.7071 16.2071C25.8946 16.0196 26 15.7652 26 15.5ZM6 12.5C6 10.9087 6.63214 9.38258 7.75736 8.25736C8.88258 7.13214 10.4087 6.5 12 6.5H28C29.5913 6.5 31.1174 7.13214 32.2426 8.25736C33.3679 9.38258 34 10.9087 34 12.5V18.506C33.318 18.538 32.64 18.69 32 18.964V12.5C32 11.4391 31.5786 10.4217 30.8284 9.67157C30.0783 8.92143 29.0609 8.5 28 8.5H12C10.9391 8.5 9.92172 8.92143 9.17157 9.67157C8.42143 10.4217 8 11.4391 8 12.5V30.152C8.00033 30.2306 8.02382 30.3074 8.06754 30.3728C8.11127 30.4381 8.17328 30.4891 8.24584 30.5194C8.3184 30.5498 8.39828 30.558 8.4755 30.5432C8.55272 30.5283 8.62385 30.491 8.68 30.436L10.294 28.844L10.29 28.838L12.386 26.778L12.798 26.374L17.898 21.364C18.459 20.8131 19.2138 20.5045 20 20.5045C20.7862 20.5045 21.541 20.8131 22.102 21.364L25.592 24.792L24.178 26.208L20.7 22.79C20.5131 22.6068 20.2618 22.5041 20 22.5041C19.7382 22.5041 19.4869 22.6068 19.3 22.79L13.788 28.204L10.086 31.86C8.57 33.356 6 32.28 6 30.152V12.5ZM6.8 34.57C7.538 34.938 8.46 35.24 9.234 35.07C9.736 34.958 10.388 34.684 11.12 34.376C12.89 33.63 15.126 32.69 16.844 33.382C18.118 33.894 18.012 35.344 17.654 36.042C17.584 36.174 17.638 36.362 17.784 36.396C18.5154 36.5447 19.2623 36.6038 20.008 36.572C20.0161 36.4776 20.0315 36.384 20.054 36.292L20.804 33.296C20.9958 32.5232 21.3956 31.8177 21.96 31.256L31.62 21.596C31.9664 21.2444 32.3789 20.9648 32.8339 20.7733C33.2888 20.5819 33.7771 20.4824 34.2707 20.4805C34.7643 20.4787 35.2533 20.5746 35.7097 20.7627C36.166 20.9508 36.5806 21.2274 36.9296 21.5764C37.2785 21.9255 37.5549 22.3402 37.7428 22.7966C37.9307 23.253 38.0265 23.7421 38.0245 24.2357C38.0224 24.7293 37.9228 25.2176 37.7311 25.6725C37.5395 26.1273 37.2598 26.5398 36.908 26.886L27.248 36.544C26.6853 37.107 25.9802 37.5066 25.208 37.7L22.764 38.31C20.522 38.966 17.176 38.754 16.138 37.944C15.24 37.244 15.204 36.17 15.506 35.456C15.574 35.296 15.454 35.09 15.284 35.116C14.294 35.256 13.484 35.616 12.684 35.97C11.514 36.49 10.372 36.996 8.732 36.792C7.31 36.616 6.518 35.874 6.082 35.142C5.838 34.734 6.374 34.358 6.8 34.57Z" fill="#3559C7"/>
</svg>
