<svg width="41" height="41" viewBox="0 0 41 41" fill="none" xmlns="http://www.w3.org/2000/svg">
<g clip-path="url(#clip0_3_36)">
<rect x="0.5" y="17.1666" width="23.3333" height="23.3333" fill="#7595FD"/>
<path d="M32.1517 3.83337H15.5167C13.665 3.83337 12.1667 5.33171 12.1667 7.18337V16.5784L4.32999 24.315C4.09519 24.5473 3.93466 24.844 3.8688 25.1676C3.80293 25.4913 3.83469 25.8271 3.96005 26.1327C4.0854 26.4382 4.2987 26.6996 4.57288 26.8837C4.84706 27.0678 5.16974 27.1663 5.49999 27.1667V35.5C5.49999 35.9421 5.67559 36.366 5.98815 36.6786C6.30071 36.9911 6.72463 37.1667 7.16666 37.1667H33.8333C34.2754 37.1667 34.6993 36.9911 35.0118 36.6786C35.3244 36.366 35.5 35.9421 35.5 35.5V7.18171C35.5 5.33171 34.0033 3.83337 32.1517 3.83337ZM18.7033 25.685V33.8334H8.83333V24.5534L13.8117 19.6384L18.7033 24.6434V25.685ZM22.1667 15.5H18.8333V12.1667H22.1667V15.5ZM28.8333 28.8334H25.5V25.5H28.8333V28.8334ZM28.8333 22.1667H25.5V18.8334H28.8333V22.1667ZM28.8333 15.5H25.5V12.1667H28.8333V15.5Z" fill="#292E3D"/>
<path d="M12.1667 25.5H15.5V28.8333H12.1667V25.5Z" fill="#14171F"/>
</g>
<defs>
<clipPath id="clip0_3_36">
<rect width="40" height="40" fill="white" transform="translate(0.5 0.5)"/>
</clipPath>
</defs>
</svg>
