<svg width="40" height="41" viewBox="0 0 40 41" fill="none" xmlns="http://www.w3.org/2000/svg">
<path d="M29.1667 32.1667H30.8333V28.0001H35V26.3334H30.8333V22.1667H29.1667V26.3334H25V28.0001H29.1667V32.1667ZM30 35.5001C27.6944 35.5001 25.7289 34.6873 24.1033 33.0617C22.4778 31.4362 21.6656 29.4712 21.6667 27.1667C21.6667 24.8612 22.4794 22.8956 24.105 21.2701C25.7306 19.6445 27.6956 18.8323 30 18.8334C32.3055 18.8334 34.2711 19.6462 35.8967 21.2717C37.5222 22.8973 38.3344 24.8623 38.3333 27.1667C38.3333 29.4723 37.5206 31.4379 35.895 33.0634C34.2694 34.689 32.3044 35.5012 30 35.5001ZM6.66666 32.1667V12.1667L20 2.16675L33.3333 12.1667V16.0001C32.7778 15.8334 32.2222 15.7084 31.6667 15.6251C31.1111 15.5417 30.5556 15.5001 30 15.5001C26.75 15.5001 23.9928 16.6323 21.7283 18.8967C19.4639 21.1612 18.3322 23.9179 18.3333 27.1667C18.3333 28.0556 18.4239 28.9167 18.605 29.7501C18.7861 30.5834 19.0706 31.389 19.4583 32.1667H6.66666Z" fill="#3559C7"/>
</svg>
