<svg width="40" height="40" viewBox="0 0 40 40" fill="none" xmlns="http://www.w3.org/2000/svg">
<path d="M21.6667 31.6667L15 28.3334M15 28.3334L5 33.3334V11.6667L15 6.66675M15 28.3334V6.66675M15 6.66675L25 11.6667M25 11.6667L35 6.66675V17.5001M25 11.6667V20.0001M35 25.0001H30.8333C30.1703 25.0001 29.5344 25.2635 29.0656 25.7323C28.5967 26.2012 28.3333 26.837 28.3333 27.5001C28.3333 28.1631 28.5967 28.799 29.0656 29.2678C29.5344 29.7367 30.1703 30.0001 30.8333 30.0001H32.5C33.163 30.0001 33.7989 30.2635 34.2678 30.7323C34.7366 31.2012 35 31.837 35 32.5001C35 33.1631 34.7366 33.799 34.2678 34.2678C33.7989 34.7367 33.163 35.0001 32.5 35.0001H28.3333M31.6667 35.0001V36.6667M31.6667 23.3334V25.0001" stroke="#3559C7" stroke-width="4.16667" stroke-linecap="round" stroke-linejoin="round"/>
</svg>
