<svg width="33" height="35" viewBox="0 0 33 35" fill="none" xmlns="http://www.w3.org/2000/svg">
<path d="M28 2.50004C26.8952 2.50093 25.8359 2.9402 25.0547 3.72141C24.2735 4.50262 23.8342 5.56191 23.8333 6.66671C23.8333 7.26171 23.9633 7.82671 24.19 8.34171L20.9317 12.0067C19.8248 11.2427 18.5116 10.8334 17.1667 10.8334C15.9333 10.8334 14.7933 11.1934 13.8017 11.7767L10.0117 7.98838L9.97334 8.02671C10.3 7.36338 10.5 6.62504 10.5 5.83338C10.5 4.84447 10.2068 3.87777 9.65735 3.05553C9.10794 2.23328 8.32705 1.59242 7.41342 1.21398C6.49979 0.83554 5.49446 0.736524 4.52455 0.92945C3.55465 1.12238 2.66373 1.59858 1.96447 2.29784C1.26521 2.99711 0.789002 3.88802 0.596076 4.85792C0.40315 5.82783 0.502166 6.83316 0.880605 7.74679C1.25904 8.66042 1.89991 9.44132 2.72215 9.99072C3.5444 10.5401 4.5111 10.8334 5.5 10.8334C6.29167 10.8334 7.02834 10.6334 7.69334 10.3067L7.655 10.345L11.445 14.1334C10.8327 15.1501 10.5063 16.3132 10.5 17.5C10.5 19.1617 11.1333 20.665 12.1417 21.835L7.84667 26.1284C7.36528 25.9357 6.85185 25.8356 6.33334 25.8334C4.03667 25.8334 2.16667 27.7017 2.16667 30C2.16667 32.2984 4.03667 34.1667 6.33334 34.1667C8.63 34.1667 10.5 32.2984 10.5 30C10.5 29.465 10.39 28.9567 10.205 28.485L14.935 23.755C15.6367 24.005 16.38 24.1667 17.1667 24.1667C20.8433 24.1667 23.8333 21.1767 23.8333 17.5C23.8333 16.44 23.5617 15.4517 23.12 14.56L26.6483 10.5884C27.075 10.735 27.525 10.8334 28 10.8334C30.2983 10.8334 32.1667 8.96504 32.1667 6.66671C32.1667 4.36838 30.2983 2.50004 28 2.50004ZM17.1667 20.8334C15.3283 20.8334 13.8333 19.3384 13.8333 17.5C13.8333 15.6617 15.3283 14.1667 17.1667 14.1667C19.005 14.1667 20.5 15.6617 20.5 17.5C20.5 19.3384 19.005 20.8334 17.1667 20.8334Z" fill="white"/>
</svg>
