<svg width="19" height="31" viewBox="0 0 19 31" fill="none" xmlns="http://www.w3.org/2000/svg">
<path d="M0.100006 26.8L0.516673 30.5L3.21667 27.9333L7.83334 15.2667C6.70001 14.9833 5.70001 14.4167 4.88334 13.6333L0.100006 26.8ZM14.1167 13.6333C13.3 14.4167 12.2833 14.9833 11.1667 15.2667L15.7833 27.9333L18.4833 30.5L18.9167 26.8L14.1167 13.6333ZM14.4 9.83333C14.9 7.23333 13.4 4.93333 11.1667 4.13333V2.16667C11.1667 1.25 10.4167 0.5 9.50001 0.5C8.58334 0.5 7.83334 1.25 7.83334 2.16667V4.13333C5.90001 4.83333 4.50001 6.66667 4.50001 8.83333C4.50001 11.9 7.26667 14.3333 10.4333 13.75C12.4 13.3833 14.0167 11.8 14.4 9.83333ZM9.50001 10.5C8.58334 10.5 7.83334 9.75 7.83334 8.83333C7.83334 7.91667 8.58334 7.16667 9.50001 7.16667C10.4167 7.16667 11.1667 7.91667 11.1667 8.83333C11.1667 9.75 10.4167 10.5 9.50001 10.5Z" fill="#292E3D"/>
</svg>
