<svg width="35" height="27" viewBox="0 0 35 27" fill="none" xmlns="http://www.w3.org/2000/svg">
<path d="M27.5 20.1666H24.1667V18.5H10.8333V20.1666H7.5V18.5H0.833328V26.8333H34.1667V18.5H27.5V20.1666ZM30.8333 6.83329H25.8333V3.49996C25.8333 1.66663 24.3333 0.166626 22.5 0.166626H12.5C10.6667 0.166626 9.16666 1.66663 9.16666 3.49996V6.83329H4.16666C2.33333 6.83329 0.833328 8.33329 0.833328 10.1666V16.8333H7.5V13.5H10.8333V16.8333H24.1667V13.5H27.5V16.8333H34.1667V10.1666C34.1667 8.33329 32.6667 6.83329 30.8333 6.83329ZM22.5 6.83329H12.5V3.49996H22.5V6.83329Z" fill="white"/>
</svg>
